<?xml version="1.0" encoding="UTF-8"?>
<!DOCTYPE svg PUBLIC "-//W3C//DTD SVG 1.1//EN" "http://www.w3.org/Graphics/SVG/1.1/DTD/svg11.dtd">
<!-- Creator: CorelDRAW X6 -->
<svg xmlns="http://www.w3.org/2000/svg" xml:space="preserve" width="17.5358mm" height="17.5347mm" version="1.1" style="shape-rendering:geometricPrecision; text-rendering:geometricPrecision; image-rendering:optimizeQuality; fill-rule:evenodd; clip-rule:evenodd"
viewBox="0 0 2576 2576"
 xmlns:xlink="http://www.w3.org/1999/xlink">
 <defs>
  <style type="text/css">
   <![CDATA[
    .fil0 {fill:#FEFEFE}
   ]]>
  </style>
 </defs>
 <g id="Слой_x0020_1">
  <metadata id="CorelCorpID_0Corel-Layer"/>
  <g id="_847816192">
   <path class="fil0" d="M2491 2222c-672,0 -1345,0 -2017,0 0,-712 0,-1425 0,-2137 0,-114 -176,-114 -176,0 0,712 0,1425 0,2137 -71,0 -142,0 -213,0 -114,0 -114,176 0,176 71,0 142,0 213,0 0,31 0,61 0,92 0,114 176,114 176,0 0,-31 0,-62 0,-92 672,0 1345,0 2017,0 114,0 114,-176 0,-176z"/>
   <polygon class="fil0" points="2171,405 1895,514 2060,644 1806,966 1615,1208 1570,1194 1120,1062 544,1984 681,2070 1192,1252 1618,1377 1675,1394 1762,1284 2187,745 2361,882 2404,589 2447,295 "/>
  </g>
 </g>
</svg>
