<?xml version="1.0" encoding="UTF-8"?>
<!DOCTYPE svg PUBLIC "-//W3C//DTD SVG 1.1//EN" "http://www.w3.org/Graphics/SVG/1.1/DTD/svg11.dtd">
<!-- Creator: CorelDRAW X6 -->
<svg xmlns="http://www.w3.org/2000/svg" xml:space="preserve" width="14.0504mm" height="19.3244mm" version="1.1" style="shape-rendering:geometricPrecision; text-rendering:geometricPrecision; image-rendering:optimizeQuality; fill-rule:evenodd; clip-rule:evenodd"
viewBox="0 0 165 227"
 xmlns:xlink="http://www.w3.org/1999/xlink">
 <defs>
  <style type="text/css">
   <![CDATA[
    .fil0 {fill:#FEFEFE}
   ]]>
  </style>
 </defs>
 <g id="Слой_x0020_1">
  <metadata id="CorelCorpID_0Corel-Layer"/>
  <path class="fil0" d="M155 203c0,7 -6,13 -13,13l-109 0 0 -178 109 0c7,0 13,6 13,13l0 151zm-41 -193c9,0 16,8 16,17l0 2 -77 0 61 -19zm27 19l-1 0 0 -2c0,-15 -12,-27 -27,-27l0 0 -98 30 0 0c-9,3 -15,12 -15,22l0 151c0,12 10,23 22,23l0 0 1 0 118 0c13,0 24,-11 24,-24l0 -151c0,-13 -11,-24 -24,-24z"/>
 </g>
</svg>
