<?xml version="1.0" encoding="UTF-8"?>
<!DOCTYPE svg PUBLIC "-//W3C//DTD SVG 1.1//EN" "http://www.w3.org/Graphics/SVG/1.1/DTD/svg11.dtd">
<!-- Creator: CorelDRAW X6 -->
<svg xmlns="http://www.w3.org/2000/svg" xml:space="preserve" width="17.5829mm" height="17.3492mm" version="1.1" style="shape-rendering:geometricPrecision; text-rendering:geometricPrecision; image-rendering:optimizeQuality; fill-rule:evenodd; clip-rule:evenodd"
viewBox="0 0 435 429"
 xmlns:xlink="http://www.w3.org/1999/xlink">
 <defs>
  <style type="text/css">
   <![CDATA[
    .fil0 {fill:#FEFEFE}
   ]]>
  </style>
 </defs>
 <g id="Слой_x0020_1">
  <metadata id="CorelCorpID_0Corel-Layer"/>
  <g id="_901068384">
   <path class="fil0" d="M273 106c-27,0 -52,7 -75,18l-2 23c22,-14 48,-22 76,-22 79,0 142,64 142,142 0,79 -64,142 -142,142 -79,0 -142,-64 -142,-142 0,-26 7,-50 19,-70l-22 1c-10,21 -16,44 -16,69 0,89 72,161 161,161 89,0 161,-72 161,-161 0,-89 -72,-161 -161,-161z"/>
   <path class="fil0" d="M273 353c47,0 85,-38 85,-85 0,-47 -38,-85 -85,-85 -18,0 -35,6 -49,15l31 31c6,-3 12,-4 18,-4 24,0 43,19 43,43 0,24 -19,43 -43,43 -24,0 -43,-19 -43,-43 0,-3 0,-6 1,-9l-32 -32c-7,12 -11,27 -11,42 0,47 38,85 85,85z"/>
   <polygon class="fil0" points="0,90 101,191 173,186 269,283 283,283 283,269 186,173 191,101 90,0 85,72 125,112 112,125 72,85 "/>
  </g>
 </g>
</svg>
