<?xml version="1.0" encoding="UTF-8"?>
<!DOCTYPE svg PUBLIC "-//W3C//DTD SVG 1.1//EN" "http://www.w3.org/Graphics/SVG/1.1/DTD/svg11.dtd">
<!-- Creator: CorelDRAW X6 -->
<svg xmlns="http://www.w3.org/2000/svg" xml:space="preserve" width="17.5034mm" height="19.1247mm" version="1.1" style="shape-rendering:geometricPrecision; text-rendering:geometricPrecision; image-rendering:optimizeQuality; fill-rule:evenodd; clip-rule:evenodd"
viewBox="0 0 102 112"
 xmlns:xlink="http://www.w3.org/1999/xlink">
 <defs>
  <style type="text/css">
   <![CDATA[
    .fil0 {fill:#FEFEFE}
   ]]>
  </style>
 </defs>
 <g id="Слой_x0020_1">
  <metadata id="CorelCorpID_0Corel-Layer"/>
  <g id="_860795008">
   <path class="fil0" d="M100 93c0,0 0,0 0,0 -2,-10 -20,-13 -23,-14 0,0 0,0 0,0 -2,-2 -5,-6 -5,-8 1,-1 2,-3 3,-5l2 -6c0,0 1,0 1,0 2,0 3,-1 3,-3l0 -4c0,-1 -1,-3 -2,-3l0 -7c0,-5 -3,-9 -7,-11 -2,-2 -4,-2 -7,-2 -3,0 -5,1 -7,2 -4,2 -7,6 -7,11l0 7c-1,0 -2,1 -2,3l0 4c0,2 1,3 3,3 0,0 1,0 1,0l2 6 0 0c0,2 1,4 3,5 -1,2 -2,5 -5,8 0,0 0,0 0,0 -4,1 -21,4 -23,14 0,0 0,0 0,0l-2 17c0,1 0,1 1,1l27 0 20 0 27 0c1,0 1,-1 1,-1l-2 -17z"/>
   <path class="fil0" d="M26 37c-7,0 -13,-2 -18,-5 -5,-3 -8,-7 -8,-12 0,-5 3,-9 8,-11 5,-3 11,-5 18,-5 3,-2 6,-4 10,-4 6,0 12,4 15,9 5,3 8,7 8,11 0,5 -3,9 -8,12 -3,5 -8,8 -14,8 -3,0 -7,-1 -9,-3zm0 -31l0 0 0 0c-7,0 -13,2 -17,5 -4,3 -6,6 -6,9 0,3 2,7 7,9 4,3 10,4 17,5l0 0 0 0c2,2 5,3 8,3 5,0 9,-3 12,-7l0 0 0 0c5,-3 7,-6 7,-10 0,-3 -2,-7 -7,-9l0 0 0 0c-3,-5 -7,-8 -12,-8 -3,0 -6,1 -9,4z"/>
   <path class="fil0" d="M29 48c0,-3 3,-5 6,-5 3,0 6,2 6,5 0,3 -3,5 -6,5 -3,0 -6,-2 -6,-5zm3 -2c-1,1 -1,1 -1,2 0,1 0,1 1,2 1,1 2,1 3,1 1,0 2,0 3,-1 1,-1 1,-1 1,-2 0,-1 0,-1 -1,-2 -1,-1 -2,-1 -3,-1 -1,0 -2,0 -3,1z"/>
   <path class="fil0" d="M33 58c0,-2 2,-4 4,-4 2,0 4,2 4,4 0,2 -2,4 -4,4 -2,0 -4,-2 -4,-4zm2 0c0,1 1,2 2,2 1,0 2,-1 2,-2 0,-1 -1,-2 -2,-2 -1,0 -2,1 -2,2z"/>
   <path class="fil0" d="M22 21c0,2 -1,3 -3,3 -2,0 -3,-1 -3,-3 0,-2 1,-3 3,-3 2,0 3,1 3,3z"/>
   <path class="fil0" d="M31 21c0,2 -1,3 -3,3 -2,0 -3,-1 -3,-3 0,-2 1,-3 3,-3 2,0 3,1 3,3z"/>
   <path class="fil0" d="M41 21c0,2 -1,3 -3,3 -2,0 -3,-1 -3,-3 0,-2 1,-3 3,-3 2,0 3,1 3,3z"/>
  </g>
 </g>
</svg>
