<?xml version="1.0" encoding="UTF-8"?>
<!DOCTYPE svg PUBLIC "-//W3C//DTD SVG 1.1//EN" "http://www.w3.org/Graphics/SVG/1.1/DTD/svg11.dtd">
<!-- Creator: CorelDRAW X6 -->
<svg xmlns="http://www.w3.org/2000/svg" xml:space="preserve" width="22.7394mm" height="15.7711mm" version="1.1" style="shape-rendering:geometricPrecision; text-rendering:geometricPrecision; image-rendering:optimizeQuality; fill-rule:evenodd; clip-rule:evenodd"
viewBox="0 0 255 177"
 xmlns:xlink="http://www.w3.org/1999/xlink">
 <defs>
  <style type="text/css">
   <![CDATA[
    .fil6 {fill:#30AB5B}
    .fil1 {fill:#EFEEF5}
    .fil2 {fill:#F3F5FB}
    .fil3 {fill:#FBFCF9}
    .fil4 {fill:#FEFEFE}
    .fil8 {fill:#FEFEFE}
    .fil0 {fill:#3D4023}
    .fil5 {fill:#484C29}
    .fil7 {fill:#8E1617}
   ]]>
  </style>
 </defs>
 <g id="Слой_x0020_1">
  <metadata id="CorelCorpID_0Corel-Layer"/>
  <polygon class="fil0" points="24,155 10,177 255,177 230,141 "/>
  <polygon class="fil1" points="121,60 121,161 193,177 157,70 "/>
  <polygon class="fil2" points="0,155 52,177 79,75 56,60 "/>
  <polygon class="fil3" points="157,70 193,177 249,155 188,63 "/>
  <polygon class="fil4" points="52,177 121,161 121,60 79,75 "/>
  <polygon class="fil5" points="158,75 165,94 193,86 183,68 "/>
  <polygon class="fil5" points="169,105 179,135 213,122 197,94 "/>
  <polygon class="fil5" points="182,144 189,165 230,150 219,132 "/>
  <polygon class="fil0" points="145,71 150,89 165,94 158,75 "/>
  <polygon class="fil0" points="151,100 157,128 179,135 169,105 "/>
  <polygon class="fil0" points="161,138 165,160 189,165 182,144 "/>
  <polygon class="fil5" points="121,81 121,151 153,158 142,87 "/>
  <polygon class="fil6" points="121,71 140,79 140,71 121,64 "/>
  <polygon class="fil5" points="62,140 108,155 121,151 121,81 78,79 "/>
  <polygon class="fil5" points="55,165 91,158 60,146 "/>
  <polygon class="fil0" points="37,109 62,140 78,79 60,72 "/>
  <polygon class="fil0" points="15,148 55,165 60,146 34,117 "/>
  <path class="fil7" d="M107 0c0,0 -38,-5 -45,38 -6,42 45,87 45,87 0,0 51,-45 45,-87 -6,-42 -45,-38 -45,-38z"/>
  <path class="fil8" d="M107 16c-17,0 -30,14 -30,30 0,17 14,30 30,30 17,0 30,-14 30,-30 0,-17 -14,-30 -30,-30z"/>
 </g>
</svg>
