<?xml version="1.0" encoding="UTF-8"?>
<!DOCTYPE svg PUBLIC "-//W3C//DTD SVG 1.1//EN" "http://www.w3.org/Graphics/SVG/1.1/DTD/svg11.dtd">
<!-- Creator: CorelDRAW X6 -->
<svg xmlns="http://www.w3.org/2000/svg" xml:space="preserve" width="22.3306mm" height="14.2354mm" version="1.1" style="shape-rendering:geometricPrecision; text-rendering:geometricPrecision; image-rendering:optimizeQuality; fill-rule:evenodd; clip-rule:evenodd"
viewBox="0 0 2578 1644"
 xmlns:xlink="http://www.w3.org/1999/xlink">
 <defs>
  <style type="text/css">
   <![CDATA[
    .fil0 {fill:#FEFEFE}
   ]]>
  </style>
 </defs>
 <g id="Слой_x0020_1">
  <metadata id="CorelCorpID_0Corel-Layer"/>
  <g id="_847808576">
   <path class="fil0" d="M2541 1112c0,-1 0,-2 0,-2 -39,-164 -310,-211 -369,-220 0,0 -1,0 -1,0 -27,-33 -71,-91 -75,-132 19,-21 33,-46 40,-74l36 -96c4,1 9,2 14,2 25,0 46,-20 46,-46l0 -65c0,-22 -15,-40 -36,-44l0 -107c0,-76 -47,-142 -113,-171 -30,-24 -69,-37 -112,-37 -43,0 -82,14 -112,37 -66,29 -113,94 -113,171l0 107c-20,4 -36,23 -36,44l0 65c0,25 20,45 46,45 5,0 9,-1 13,-2l36 96 0 0c8,29 23,55 43,77 -10,36 -31,83 -75,130 -1,0 -2,0 -3,0 -34,5 -140,23 -230,69 14,24 33,52 57,81 130,21 482,98 540,340 0,2 1,3 1,5l4 15 416 0c12,0 21,-10 19,-22l-37 -266z"/>
   <path class="fil0" d="M997 1039c27,-31 48,-64 64,-99 -95,-56 -217,-77 -254,-83 0,0 -1,0 -1,0 -27,-33 -71,-91 -75,-132 19,-20 33,-46 40,-74l36 -96c4,1 9,2 14,2 25,0 46,-21 46,-46l0 -65c0,-22 -15,-40 -36,-44l0 -107c0,-76 -47,-142 -113,-171 -30,-24 -69,-37 -112,-37 -43,0 -82,14 -112,37 -66,29 -113,94 -113,171l0 107c-20,5 -36,23 -36,44l0 65c0,25 20,46 46,46 5,0 9,-1 13,-2l36 96 0 0c7,29 23,55 43,77 -10,36 -31,83 -75,130 -1,0 -2,0 -3,0 -59,9 -330,56 -369,220 0,1 0,2 0,2l-37 266c-2,12 7,22 19,22l429 0 8 0c67,-235 417,-310 541,-329z"/>
   <path class="fil0" d="M2096 1394c0,-1 0,-2 -1,-3 -55,-230 -435,-297 -519,-309 0,0 0,0 -1,0 0,0 -1,0 -1,0 0,0 0,0 0,0 -38,-46 -100,-128 -105,-186 27,-29 47,-64 57,-104l50 -135c6,2 12,3 19,3 35,0 64,-29 64,-64l0 -92c0,-30 -22,-56 -50,-63l0 -150c0,-107 -65,-200 -158,-240 -42,-33 -97,-53 -157,-53 -60,0 -115,19 -157,53 -93,40 -158,133 -158,240l0 150c-29,6 -50,32 -50,62l0 92c0,35 29,64 64,64 7,0 13,-1 18,-3l50 135 1 0c11,41 32,78 61,108 -14,51 -44,117 -105,182 -1,0 -2,0 -3,0 -1,0 -1,0 -2,0 -83,12 -463,79 -519,309 0,1 0,2 -1,3l-52 219c-2,16 10,31 27,31l603 0 446 0 603 0c16,0 29,-15 27,-31l-52 -219z"/>
  </g>
 </g>
</svg>
