<?xml version="1.0" encoding="UTF-8"?>
<!DOCTYPE svg PUBLIC "-//W3C//DTD SVG 1.1//EN" "http://www.w3.org/Graphics/SVG/1.1/DTD/svg11.dtd">
<!-- Creator: CorelDRAW X6 -->
<svg xmlns="http://www.w3.org/2000/svg" xml:space="preserve" width="20.9504mm" height="12.0164mm" version="1.1" style="shape-rendering:geometricPrecision; text-rendering:geometricPrecision; image-rendering:optimizeQuality; fill-rule:evenodd; clip-rule:evenodd"
viewBox="0 0 2809 1611"
 xmlns:xlink="http://www.w3.org/1999/xlink">
 <defs>
  <style type="text/css">
   <![CDATA[
    .fil0 {fill:#FEFEFE}
   ]]>
  </style>
 </defs>
 <g id="Слой_x0020_1">
  <metadata id="CorelCorpID_0Corel-Layer"/>
  <path class="fil0" d="M2809 1611l-2809 0 0 -387c109,-10 207,-38 293,-85 207,-112 341,-309 400,-589 32,-151 112,-279 239,-383 135,-111 292,-167 471,-167 180,0 337,55 471,167 126,104 206,231 238,383 61,280 195,477 402,589 86,47 184,75 293,85l0 387zm-898 -954c0,-136 -50,-252 -149,-349 -99,-96 -219,-144 -358,-144 -140,0 -259,48 -358,144 -98,96 -148,213 -148,349 0,137 50,253 148,350 99,96 218,145 358,145 139,0 259,-48 358,-145 100,-97 149,-214 149,-350zm-23 20l-203 0 0 -42 203 0 0 42zm-465 -287l-42 0 0 -203 42 0 0 203zm333 -39l-72 94 -11 -11 -215 197 -19 -19 221 -188 -15 -13 110 -59zm-380 255l-30 25 -86 -125 -19 13 -46 -113 110 68 -23 17 94 115zm76 51c0,33 -16,50 -48,50 -32,0 -48,-17 -48,-50 0,-32 16,-47 48,-47 32,0 48,16 48,47zm-29 476l-42 0 0 -203 42 0 0 203zm-300 -455l-203 0 0 -42 203 0 0 42z"/>
 </g>
</svg>
