<?xml version="1.0" encoding="UTF-8"?>
<!DOCTYPE svg PUBLIC "-//W3C//DTD SVG 1.1//EN" "http://www.w3.org/Graphics/SVG/1.1/DTD/svg11.dtd">
<!-- Creator: CorelDRAW X6 -->
<svg xmlns="http://www.w3.org/2000/svg" xml:space="preserve" width="14.6329mm" height="18.0452mm" version="1.1" style="shape-rendering:geometricPrecision; text-rendering:geometricPrecision; image-rendering:optimizeQuality; fill-rule:evenodd; clip-rule:evenodd"
viewBox="0 0 2459 3033"
 xmlns:xlink="http://www.w3.org/1999/xlink">
 <defs>
  <style type="text/css">
   <![CDATA[
    .fil0 {fill:#FEFEFE}
   ]]>
  </style>
 </defs>
 <g id="Слой_x0020_1">
  <metadata id="CorelCorpID_0Corel-Layer"/>
  <path class="fil0" d="M112 2615c-75,-188 -112,-376 -112,-563 0,-191 41,-378 124,-560l279 0c64,0 111,-11 141,-32 30,-21 81,-80 152,-177l67 -87c73,-100 125,-168 155,-203l443 -467 119 -526 66 16c249,59 373,206 373,441 0,85 -41,207 -125,362l-36 66c-69,133 -113,271 -132,412l66 0c229,0 414,40 555,120 140,80 211,185 211,313 0,113 -42,215 -126,307 32,56 49,109 49,157 0,122 -64,201 -192,237 5,28 7,50 7,67 0,146 -86,225 -258,240 3,20 5,36 5,45 0,83 -29,145 -87,186 -58,41 -144,62 -261,62l-105 0 -83 -42c-105,28 -197,42 -276,42 -28,0 -73,-2 -134,-7 -190,-87 -368,-224 -531,-411l-356 0z"/>
 </g>
</svg>
